<?xml version="1.0" encoding="utf-8" ?>
<svg xmlns="http://www.w3.org/2000/svg" xmlns:xlink="http://www.w3.org/1999/xlink" width="32" height="32" viewBox="0 0 32 32">
	<path transform="matrix(1 0 0 1 0 0)" d="M16 0C7.16344 0 0 7.16344 0 16L0 16.024C0 24.8606 7.13944 32 15.976 32L16 32C24.8366 32 32 24.8606 32 16.024L32 16C32 7.16344 24.8606 0 16.024 0L16 0Z" fill-rule="nonzero" fill="rgb(37, 99, 235)"/>
	<defs>
		<clipPath id="clipPath3819685511">
			<path transform="matrix(1 0 0 1 6 6)" d="M0 0L20 0L20 20L0 20L0 0Z" fill-rule="nonzero"/>
		</clipPath>
	</defs>
	<g clip-path="url(#clipPath3819685511)">
		<path transform="matrix(1 0 0 1 6 6)" d="M10 3.75C9.65483 3.75 9.375 4.02983 9.375 4.375L9.375 9.375L4.375 9.375C4.02983 9.375 3.75 9.65483 3.75 10C3.75 10.3452 4.02983 10.625 4.375 10.625L9.375 10.625L9.375 15.625C9.375 15.9702 9.65483 16.25 10 16.25C10.3452 16.25 10.625 15.9702 10.625 15.625L10.625 10.625L15.625 10.625C15.9702 10.625 16.25 10.3452 16.25 10C16.25 9.65483 15.9702 9.375 15.625 9.375L10.625 9.375L10.625 4.375C10.625 4.02983 10.3452 3.75 10 3.75Z" fill-rule="evenodd" fill="rgb(255, 255, 255)"/>
	</g>
</svg>
