<?xml version="1.0" encoding="utf-8" ?>
<svg xmlns="http://www.w3.org/2000/svg" xmlns:xlink="http://www.w3.org/1999/xlink" width="16" height="16" viewBox="0 0 16 16">
	<defs>
		<clipPath id="clipPath9552986872">
			<path transform="matrix(1 0 0 1 0 0)" d="M0 0L16 0L16 16L0 16L0 0Z" fill-rule="nonzero"/>
		</clipPath>
	</defs>
	<g clip-path="url(#clipPath9552986872)">
		<path transform="matrix(1 0 0 1 0 0)" d="M8 2.5Q6.88121 2.5 5.85988 2.93215Q4.873 3.34973 4.11137 4.11137Q3.34973 4.873 2.93215 5.85988Q2.5 6.88121 2.5 8Q2.5 9.11879 2.93215 10.1401Q3.34973 11.127 4.11137 11.8886Q4.873 12.6503 5.85988 13.0678Q6.88121 13.5 8 13.5Q9.11879 13.5 10.1401 13.0678Q11.127 12.6503 11.8886 11.8886Q12.6503 11.127 13.0678 10.1401Q13.5 9.11879 13.5 8Q13.5 6.88121 13.0678 5.85988Q12.6503 4.873 11.8886 4.11137Q11.127 3.34973 10.1401 2.93215Q9.11879 2.5 8 2.5L8 1.5Q9.32165 1.5 10.5298 2.0112Q11.6962 2.50476 12.5957 3.40426Q13.4952 4.30376 13.9888 5.4702Q14.5 6.67835 14.5 8Q14.5 9.32165 13.9888 10.5298Q13.4952 11.6962 12.5957 12.5957Q11.6962 13.4952 10.5298 13.9888Q9.32165 14.5 8 14.5Q6.67835 14.5 5.4702 13.9888Q4.30376 13.4952 3.40426 12.5957Q2.50476 11.6962 2.0112 10.5298Q1.5 9.32165 1.5 8Q1.5 6.67835 2.0112 5.4702Q2.50476 4.30376 3.40426 3.40426Q4.30376 2.50476 5.4702 2.0112Q6.67835 1.5 8 1.5L8 2.5Z" fill-rule="nonzero" fill="rgb(100, 116, 139)"/>
		<path transform="matrix(1 0 0 1 0 0)" d="M8 3.5C7.72386 3.5 7.5 3.72386 7.5 4L7.5 8.5Q7.5 8.54924 7.50961 8.59754Q7.51921 8.64584 7.53806 8.69134Q7.5569 8.73684 7.58426 8.77778Q7.61162 8.81873 7.64645 8.85355Q7.68127 8.88837 7.72221 8.91573Q7.76316 8.94309 7.80866 8.96194Q7.85415 8.98079 7.90245 8.99039Q7.95075 9 8 9L11 9C11.2761 9 11.5 8.77614 11.5 8.5C11.5 8.22386 11.2761 8 11 8L8.5 8L8.5 4C8.5 3.72386 8.27614 3.5 8 3.5Z" fill-rule="evenodd" fill="rgb(100, 116, 139)"/>
	</g>
</svg>
