<?xml version="1.0" encoding="utf-8" ?>
<svg xmlns="http://www.w3.org/2000/svg" xmlns:xlink="http://www.w3.org/1999/xlink" width="20" height="20" viewBox="0 0 20 20">
	<defs>
		<clipPath id="clipPath8186618889">
			<path transform="matrix(1 0 0 1 0 0)" d="M0 0L20 0L20 20L0 20L0 0Z" fill-rule="nonzero"/>
		</clipPath>
	</defs>
	<g clip-path="url(#clipPath8186618889)">
		<path transform="matrix(1 0 0 1 0 0)" d="M17.5895 4.375L5.54688 4.375C4.21875 4.375 3.125 5.44961 3.125 6.7707L3.125 16.3543C3.125 17.6754 4.21875 18.75 5.54688 18.75L17.5781 18.75C18.9062 18.75 20 17.7273 20 16.4062L20 6.7707C20 5.44961 18.9187 4.375 17.5895 4.375M14.5758 6.77109C15.5667 6.77713 16.3657 7.58427 16.3617 8.57522C16.3577 9.56617 15.5522 10.3668 14.5612 10.3648C13.5703 10.3628 12.768 9.55893 12.768 8.56797C12.7718 7.57286 13.5807 6.76876 14.5758 6.7707M5.53086 17.5523C4.8668 17.5523 4.36445 17.0152 4.36445 16.3547L4.36445 13.8223L7.89805 10.6664C8.61476 10.036 9.69699 10.0672 10.3762 10.7379L12.823 13.1641L8.40898 17.552M18.75 16.3543C18.7499 16.6722 18.6234 16.9771 18.3984 17.2017C18.1734 17.4264 17.8683 17.5524 17.5504 17.552L10.1172 17.552L14.6906 13.0078C15.3606 12.4427 16.3395 12.44 17.0125 13.0016L18.75 14.4762" fill-rule="nonzero" fill="rgb(100, 116, 139)"/>
		<path transform="matrix(1 0 0 1 0 0)" d="M15 1.25L2.5 1.25C1.12021 1.25 2.77556e-16 2.37021 0 3.75L0 13.75C0.000940378 14.8899 0.771631 15.8854 1.875 16.1719L1.875 5.9375C1.875 4.3842 3.1342 3.125 4.6875 3.125L17.4219 3.125C17.1354 2.02163 16.1399 1.25094 15 1.25" fill-rule="nonzero" fill="rgb(100, 116, 139)"/>
	</g>
</svg>
