<?xml version="1.0" encoding="utf-8" ?>
<svg xmlns="http://www.w3.org/2000/svg" xmlns:xlink="http://www.w3.org/1999/xlink" width="16.6667" height="16.6666" viewBox="0 0 16.6667 16.6666">
	<path transform="matrix(1 0 0 1 -1.66666 -1.66669)" d="M10 1.66667C5.4 1.66667 1.66667 5.4 1.66667 10C1.66667 14.6 5.4 18.3333 10 18.3333C14.6 18.3333 18.3333 14.6 18.3333 10C18.3333 5.4 14.6 1.66667 10 1.66667M5.83333 11.25C5.14167 11.25 4.58333 10.6917 4.58333 10C4.58333 9.30833 5.14167 8.75 5.83333 8.75C6.525 8.75 7.08333 9.30833 7.08333 10C7.08333 10.6917 6.525 11.25 5.83333 11.25M10 11.25C9.30833 11.25 8.75 10.6917 8.75 10C8.75 9.30833 9.30833 8.75 10 8.75C10.6917 8.75 11.25 9.30833 11.25 10C11.25 10.6917 10.6917 11.25 10 11.25M14.1667 11.25C13.475 11.25 12.9167 10.6917 12.9167 10C12.9167 9.30833 13.475 8.75 14.1667 8.75C14.8583 8.75 15.4167 9.30833 15.4167 10C15.4167 10.6917 14.8583 11.25 14.1667 11.25" fill-rule="nonzero" fill="rgb(245, 158, 11)"/>
</svg>
