<?xml version="1.0" encoding="utf-8" ?>
<svg xmlns="http://www.w3.org/2000/svg" xmlns:xlink="http://www.w3.org/1999/xlink" width="20" height="20" viewBox="0 0 20 20">
	<defs>
		<clipPath id="clipPath6066111384">
			<path transform="matrix(1 0 0 1 0 0)" d="M0 0L20 0L20 20L0 20L0 0Z" fill-rule="nonzero"/>
		</clipPath>
	</defs>
	<g clip-path="url(#clipPath6066111384)">
		<path transform="matrix(1 0 0 1 0 0)" d="M8.63633 3.125Q7.51562 3.125 6.49237 3.55811Q5.5035 3.97666 4.74008 4.74008Q3.97666 5.5035 3.55811 6.49237Q3.125 7.51561 3.125 8.63633Q3.125 9.75704 3.55811 10.7803Q3.97666 11.7692 4.74008 12.5326Q5.5035 13.296 6.49237 13.7145Q7.51561 14.1477 8.63633 14.1477Q9.75704 14.1477 10.7803 13.7145Q11.7692 13.296 12.5326 12.5326Q13.296 11.7692 13.7145 10.7803Q14.1477 9.75704 14.1477 8.63633Q14.1476 7.51469 13.7147 6.49135Q13.2964 5.50243 12.5333 4.73934Q11.7702 3.97626 10.7813 3.55795Q9.75796 3.12507 8.63629 3.125L8.63637 1.875Q10.0115 1.87509 11.2683 2.40671Q12.4817 2.91999 13.4172 3.85546Q14.3527 4.79093 14.866 6.00437Q15.3976 7.26115 15.3977 8.63633Q15.3977 10.0107 14.8657 11.2675Q14.3522 12.4808 13.4165 13.4165Q12.4808 14.3522 11.2675 14.8657Q10.0107 15.3977 8.63633 15.3977Q7.26196 15.3977 6.00513 14.8657Q4.7919 14.3522 3.8562 13.4165Q2.9205 12.4808 2.40698 11.2675Q1.875 10.0107 1.875 8.63633Q1.875 7.26197 2.40698 6.00513Q2.9205 4.7919 3.8562 3.8562Q4.7919 2.9205 6.00513 2.40698Q7.26197 1.875 8.63633 1.875L8.63633 3.125Z" fill-rule="nonzero" fill="rgb(156, 163, 175)"/>
		<path transform="matrix(1 0 0 1 0 0)" d="M12.7725 12.7725C12.5284 13.0166 12.5284 13.4123 12.7725 13.6564L17.0581 17.9419C17.3021 18.186 17.6979 18.186 17.9419 17.9419C18.186 17.6979 18.186 17.3021 17.9419 17.0581L13.6564 12.7725C13.4123 12.5284 13.0166 12.5284 12.7725 12.7725Z" fill-rule="evenodd" fill="rgb(156, 163, 175)"/>
	</g>
</svg>
