<?xml version="1.0" encoding="utf-8" ?>
<svg xmlns="http://www.w3.org/2000/svg" xmlns:xlink="http://www.w3.org/1999/xlink" width="18.963" height="13.3333" viewBox="0 0 18.963 13.3333">
	<path transform="matrix(1 0 0 1 -0.518494 -3.33333)" d="M19.0852 5.41955C18.8672 4.59837 18.2246 3.95163 17.4087 3.73215C15.9299 3.33333 10 3.33333 10 3.33333C10 3.33333 4.07014 3.33333 2.59128 3.73215C1.77542 3.95167 1.13285 4.59837 0.914757 5.41955C0.518507 6.90799 0.518507 10.0135 0.518507 10.0135C0.518507 10.0135 0.518507 13.119 0.914757 14.6074C1.13285 15.4286 1.77542 16.0484 2.59128 16.2678C4.07014 16.6667 10 16.6667 10 16.6667C10 16.6667 15.9299 16.6667 17.4087 16.2678C18.2246 16.0484 18.8672 15.4286 19.0852 14.6074C19.4815 13.119 19.4815 10.0135 19.4815 10.0135C19.4815 10.0135 19.4815 6.90799 19.0852 5.41955M8.06059 12.833L8.06059 7.19392L13.0168 10.0135L8.06059 12.833" fill-rule="nonzero" fill="rgb(220, 38, 38)"/>
</svg>
